<?xml version="1.0" encoding="UTF-8" standalone="no"?>
<!-- Created with Inkscape (http://www.inkscape.org/) -->

<svg
   sodipodi:docname="Tangram_2.svg"
   inkscape:version="1.2.1 (9c6d41e410, 2022-07-14)"
   xml:space="preserve"
   id="svg5"
   version="1.1"
   viewBox="0 0 210 297"
   height="297mm"
   width="210mm"
   xmlns:inkscape="http://www.inkscape.org/namespaces/inkscape"
   xmlns:sodipodi="http://sodipodi.sourceforge.net/DTD/sodipodi-0.dtd"
   xmlns="http://www.w3.org/2000/svg"
   xmlns:svg="http://www.w3.org/2000/svg"><sodipodi:namedview
     id="namedview7"
     pagecolor="#ffffff"
     bordercolor="#666666"
     borderopacity="1.0"
     inkscape:showpageshadow="2"
     inkscape:pageopacity="0.0"
     inkscape:pagecheckerboard="0"
     inkscape:deskcolor="#d1d1d1"
     inkscape:document-units="mm"
     showgrid="false"
     inkscape:zoom="1.4912879"
     inkscape:cx="266.21285"
     inkscape:cy="304.43484"
     inkscape:window-width="1920"
     inkscape:window-height="1009"
     inkscape:window-x="1912"
     inkscape:window-y="-8"
     inkscape:window-maximized="1"
     inkscape:current-layer="layer1" /><defs
     id="defs2" /><g
     inkscape:label="Layer 1"
     inkscape:groupmode="layer"
     id="layer1"><g
       id="g257"
       transform="translate(-3.6376323,-8.8874614)"><g
         inkscape:label="Vrstva 1"
         id="layer1-1"
         style="display:inline"><path
           style="fill:none;stroke:#000000;stroke-width:0.499999"
           d="m 16.121833,27.227985 c 0.716526,0 97.805787,0 97.805787,0 l -0.17913,97.268395 -97.447525,0.17913 z"
           id="path545" /><path
           style="fill:none;stroke:#000000;stroke-width:0.499999"
           d="M 16.121833,27.227985 113.39023,124.31725"
           id="path547" /><path
           style="fill:none;stroke:#000000;stroke-width:0.499999"
           d="M 16.300965,124.49638 65.024727,75.772618"
           id="path549" /><path
           style="fill:none;stroke:#000000;stroke-width:0.502748"
           d="M 40.730989,51.566498 65.023758,27.408092"
           id="path551" /><path
           style="fill:none;stroke:#000000;stroke-width:0.502832"
           d="M 65.025522,27.229274 C 65.74576,27.589742 113.82169,76.07245 113.82169,76.07245"
           id="path553" /><path
           style="fill:none;stroke:#000000;stroke-width:0.499999"
           d="M 89.565741,51.410734 65.024727,75.951748"
           id="path555" /><path
           style="fill:none;stroke:#000000;stroke-width:0.501835"
           d="m 89.386625,51.768947 0.179101,48.729763"
           id="path557" /></g><g
         id="layer2"
         inkscape:label="Vrstva 2"
         style="display:inline"><path
           style="fill:none;stroke:#000000;stroke-width:0.458894"
           d="M 18.488415,28.005088 40.655385,50.724021 63.106548,27.921866 Z"
           id="path726" /><path
           style="fill:none;stroke:#000000;stroke-width:0.416322"
           d="M 21.074912,28.72829 40.780401,49.763223 60.738524,28.651237 Z"
           id="path726-6" /><path
           style="fill:none;stroke:#000000;stroke-width:0.379586"
           d="M 22.980012,29.484012 40.837309,48.780314 58.923544,29.413328 Z"
           id="path726-6-1" /><path
           style="fill:none;stroke:#000000;stroke-width:0.34404"
           d="m 24.663694,30.220285 16.2068,17.465857 16.414577,-17.529835 z"
           id="path726-6-1-0" /><path
           style="fill:none;stroke:#000000;stroke-width:0.312688"
           d="M 26.195096,30.825723 40.902672,46.724102 55.798806,30.767487 Z"
           id="path726-6-1-0-5" /><path
           style="fill:none;stroke:#000000;stroke-width:0.283252"
           d="M 27.795078,31.431818 40.979794,45.984594 54.333546,31.37851 Z"
           id="path726-6-1-0-5-6" /><path
           style="fill:none;stroke:#000000;stroke-width:0.254949"
           d="M 29.330063,32.015616 41.100998,45.221476 53.022844,31.967242 Z"
           id="path726-6-1-0-5-6-0" /><path
           style="fill:none;stroke:#000000;stroke-width:0.229534"
           d="M 30.577619,32.467221 41.086853,44.456562 51.730822,32.423303 Z"
           id="path726-6-1-0-5-6-0-3" /><path
           style="fill:none;stroke:#000000;stroke-width:0.202075"
           d="m 31.979859,33.074102 9.138344,10.686399 9.255505,-10.725545 z"
           id="path726-6-1-0-5-6-0-3-7" /><path
           style="fill:none;stroke:#000000;stroke-width:0.173683"
           d="m 33.359137,33.680005 7.723529,9.340597 7.822552,-9.374813 z"
           id="path726-6-1-0-5-6-0-3-7-9" /><path
           style="fill:none;stroke:#000000;stroke-width:0.150283"
           d="m 34.520714,34.222232 6.613988,8.166397 6.698785,-8.196311 z"
           id="path726-6-1-0-5-6-0-3-7-9-8" /><path
           style="fill:none;stroke:#000000;stroke-width:0.130989"
           d="m 35.507066,34.633435 5.656284,7.254654 5.728802,-7.281228 z"
           id="path726-6-1-0-5-6-0-3-7-9-8-8" /><path
           style="fill:none;stroke:#000000;stroke-width:0.110582"
           d="m 36.426511,35.133242 4.742804,6.166121 4.803612,-6.188707 z"
           id="path726-6-1-0-5-6-0-3-7-9-8-8-1" /><path
           style="fill:none;stroke:#000000;stroke-width:0.095438"
           d="m 37.127479,35.457987 4.046381,5.383368 4.098259,-5.403087 z"
           id="path726-6-1-0-5-6-0-3-7-9-8-8-1-7" /><path
           style="fill:none;stroke:#000000;stroke-width:0.264583px;stroke-linecap:butt;stroke-linejoin:miter;stroke-opacity:1"
           d="m 37.031233,42.646895 c 4.516358,0.501817 48.676319,0 48.676319,0"
           id="path423"
           transform="translate(3.6376323,8.8874614)" /><path
           style="fill:none;stroke:#000000;stroke-width:0.264583px;stroke-linecap:butt;stroke-linejoin:miter;stroke-opacity:1"
           d="m 65.113437,27.427784 c 0,0.620968 -0.177419,48.435484 -0.177419,48.435484"
           id="path476" /><path
           style="fill:none;stroke:#000000;stroke-width:0.238034px;stroke-linecap:butt;stroke-linejoin:miter;stroke-opacity:1"
           d="M 42.725426,51.135542 64.3373,51.216292 64.41618,29.171036 Z"
           id="path478" /><path
           style="fill:none;stroke:#000000;stroke-width:0.208619px;stroke-linecap:butt;stroke-linejoin:miter;stroke-opacity:1"
           d="m 44.778719,50.498819 18.74542,0.07151 0.06841,-19.522826 z"
           id="path478-8" /><path
           style="fill:none;stroke:#000000;stroke-width:0.179729px;stroke-linecap:butt;stroke-linejoin:miter;stroke-opacity:1"
           d="m 46.605761,49.72737 16.230504,0.0613 0.05923,-16.735295 z"
           id="path478-8-6" /><path
           style="fill:none;stroke:#000000;stroke-width:0.151777px;stroke-linecap:butt;stroke-linejoin:miter;stroke-opacity:1"
           d="m 48.170878,48.996634 13.979504,0.05075 0.05102,-13.856403 z"
           id="path478-8-6-2" /><path
           style="fill:none;stroke:#000000;stroke-width:0.129473px;stroke-linecap:butt;stroke-linejoin:miter;stroke-opacity:1"
           d="m 49.521271,48.392942 12.117063,0.04261 0.04422,-11.632909 z"
           id="path478-8-6-2-0" /><path
           style="fill:none;stroke:#000000;stroke-width:0.238034px;stroke-linecap:butt;stroke-linejoin:miter;stroke-opacity:1"
           d="m 65.748792,29.362063 0.04781,21.611971 22.045335,-0.05226 z"
           id="path478-4" /><path
           style="fill:none;stroke:#000000;stroke-width:0.208619px;stroke-linecap:butt;stroke-linejoin:miter;stroke-opacity:1"
           d="m 66.397718,31.411531 0.04,18.745514 19.522887,-0.04773 z"
           id="path478-8-9" /><path
           style="fill:none;stroke:#000000;stroke-width:0.179729px;stroke-linecap:butt;stroke-linejoin:miter;stroke-opacity:1"
           d="m 67.180021,33.233952 0.03525,16.230582 16.735351,-0.04032 z"
           id="path478-8-6-9" /><path
           style="fill:none;stroke:#000000;stroke-width:0.151777px;stroke-linecap:butt;stroke-linejoin:miter;stroke-opacity:1"
           d="m 67.920055,34.794694 0.03241,13.979559 13.856461,-0.03141 z"
           id="path478-8-6-2-8" /><path
           style="fill:none;stroke:#000000;stroke-width:0.129473px;stroke-linecap:butt;stroke-linejoin:miter;stroke-opacity:1"
           d="m 68.53177,36.141472 0.02947,12.117103 11.632966,-0.02498 z"
           id="path478-8-6-2-0-4" /><path
           style="fill:none;stroke:#000000;stroke-width:0.238034px;stroke-linecap:butt;stroke-linejoin:miter;stroke-opacity:1"
           d="m 87.157903,52.278214 -21.61172,0.114655 0.120446,22.045068 z"
           id="path478-4-2" /><path
           style="fill:none;stroke:#000000;stroke-width:0.208619px;stroke-linecap:butt;stroke-linejoin:miter;stroke-opacity:1"
           d="m 85.110452,52.933476 -18.7453,0.09798 0.108113,19.522646 z"
           id="path478-8-9-9" /><path
           style="fill:none;stroke:#000000;stroke-width:0.179729px;stroke-linecap:butt;stroke-linejoin:miter;stroke-opacity:1"
           d="m 83.29046,53.721411 -16.230396,0.08545 0.09208,16.735146 z"
           id="path478-8-6-9-4" /><path
           style="fill:none;stroke:#000000;stroke-width:0.151777px;stroke-linecap:butt;stroke-linejoin:miter;stroke-opacity:1"
           d="m 81.732014,54.466269 -13.979392,0.07565 0.07427,13.856297 z"
           id="path478-8-6-2-8-3" /><path
           style="fill:none;stroke:#000000;stroke-width:0.129473px;stroke-linecap:butt;stroke-linejoin:miter;stroke-opacity:1"
           d="M 80.387134,55.082147 68.27018,55.149097 68.33114,66.78193 Z"
           id="path478-8-6-2-0-4-9" /><path
           style="fill:none;stroke:#000000;stroke-width:0.238034px;stroke-linecap:butt;stroke-linejoin:miter;stroke-opacity:1"
           d="M 64.178531,74.119203 64.313711,52.507601 42.268724,52.373202 Z"
           id="path478-4-2-0" /><path
           style="fill:none;stroke:#000000;stroke-width:0.208619px;stroke-linecap:butt;stroke-linejoin:miter;stroke-opacity:1"
           d="M 63.546981,72.064314 63.6657,53.319134 44.143108,53.201561 Z"
           id="path478-8-9-9-4" /><path
           style="fill:none;stroke:#000000;stroke-width:0.179729px;stroke-linecap:butt;stroke-linejoin:miter;stroke-opacity:1"
           d="M 62.780137,70.235335 62.882313,54.005036 46.147221,53.903654 Z"
           id="path478-8-6-9-4-5" /><path
           style="fill:none;stroke:#000000;stroke-width:0.151777px;stroke-linecap:butt;stroke-linejoin:miter;stroke-opacity:1"
           d="M 62.053344,68.668383 62.139294,54.68905 48.283064,54.60314 Z"
           id="path478-8-6-2-8-3-2" /><path
           style="fill:none;stroke:#000000;stroke-width:0.129473px;stroke-linecap:butt;stroke-linejoin:miter;stroke-opacity:1"
           d="m 61.453054,67.316473 0.07312,-12.116918 -11.63276,-0.07352 z"
           id="path478-8-6-2-0-4-9-6" /><path
           style="fill:none;stroke:#000000;stroke-width:0.257361px;stroke-linecap:butt;stroke-linejoin:miter;stroke-opacity:1"
           d="m 63.160124,77.279393 c 0.862893,0.431437 47.286526,47.199317 47.286526,47.199317"
           id="path1600" /><path
           style="display:inline;fill:none;stroke:#000000;stroke-width:0.247251px;stroke-linecap:butt;stroke-linejoin:miter;stroke-opacity:1"
           d="m 61.367804,79.283453 c 0.827388,0.415293 45.340836,45.433157 45.340836,45.433157"
           id="path1600-0" /><path
           style="display:inline;fill:none;stroke:#000000;stroke-width:0.236419px;stroke-linecap:butt;stroke-linejoin:miter;stroke-opacity:1"
           d="m 59.280527,81.185866 c 0.791892,0.396723 43.395663,43.401514 43.395663,43.401514"
           id="path1600-0-6" /><path
           style="display:inline;fill:none;stroke:#000000;stroke-width:0.226063px;stroke-linecap:butt;stroke-linejoin:miter;stroke-opacity:1"
           d="m 57.415004,83.177015 c 0.762868,0.376529 41.805168,41.192245 41.805168,41.192245"
           id="path1600-0-6-2" /><path
           style="display:inline;fill:none;stroke:#000000;stroke-width:0.218599px;stroke-linecap:butt;stroke-linejoin:miter;stroke-opacity:1"
           d="m 55.639088,84.903402 c 0.738666,0.36361 40.47892,39.778918 40.47892,39.778918"
           id="path1600-0-6-2-8" /><path
           style="display:inline;fill:none;stroke:#000000;stroke-width:0.210879px;stroke-linecap:butt;stroke-linejoin:miter;stroke-opacity:1"
           d="m 53.951643,86.673982 c 0.717707,0.348261 39.330364,38.099808 39.330364,38.099808"
           id="path1600-0-6-2-8-7" /><path
           style="display:inline;fill:none;stroke:#000000;stroke-width:0.201702px;stroke-linecap:butt;stroke-linejoin:miter;stroke-opacity:1"
           d="m 51.997802,88.665576 c 0.691906,0.33049 37.916487,36.155794 37.916487,36.155794"
           id="path1600-0-6-2-8-7-5" /><path
           style="display:inline;fill:none;stroke:#000000;stroke-width:0.191563px;stroke-linecap:butt;stroke-linejoin:miter;stroke-opacity:1"
           d="m 49.955104,90.612412 c 0.661257,0.311916 36.236941,34.123858 36.236941,34.123858"
           id="path1600-0-6-2-8-7-5-4" /><path
           style="display:inline;fill:none;stroke:#000000;stroke-width:0.181629px;stroke-linecap:butt;stroke-linejoin:miter;stroke-opacity:1"
           d="M 48.311567,92.692321 C 48.945412,92.984856 83.046309,124.6955 83.046309,124.6955"
           id="path1600-0-6-2-8-7-5-4-0" /><path
           style="display:inline;fill:none;stroke:#000000;stroke-width:0.171762px;stroke-linecap:butt;stroke-linejoin:miter;stroke-opacity:1"
           d="m 46.224789,94.373219 c 0.599952,0.276396 32.87737,30.237111 32.87737,30.237111"
           id="path1600-0-6-2-8-7-5-4-0-8" /><path
           style="display:inline;fill:none;stroke:#000000;stroke-width:0.163801px;stroke-linecap:butt;stroke-linejoin:miter;stroke-opacity:1"
           d="m 44.404441,96.05501 c 0.574134,0.262675 31.462531,28.73566 31.462531,28.73566"
           id="path1600-0-6-2-8-7-5-4-0-8-3" /><path
           style="display:inline;fill:none;stroke:#000000;stroke-width:0.154414px;stroke-linecap:butt;stroke-linejoin:miter;stroke-opacity:1"
           d="m 42.716921,97.691826 c 0.541854,0.247338 29.693578,27.057924 29.693578,27.057924"
           id="path1600-0-6-2-8-7-5-4-0-8-3-1" /><path
           style="display:inline;fill:none;stroke:#000000;stroke-width:0.143304px;stroke-linecap:butt;stroke-linejoin:miter;stroke-opacity:1"
           d="m 40.895848,99.726967 c 0.506356,0.227968 27.748251,24.938193 27.748251,24.938193"
           id="path1600-0-6-2-8-7-5-4-0-8-3-1-8" /><path
           style="display:inline;fill:none;stroke:#000000;stroke-width:0.133856px;stroke-linecap:butt;stroke-linejoin:miter;stroke-opacity:1"
           d="m 38.805219,101.73898 c 0.478983,0.21027 26.248205,23.00171 26.248205,23.00171"
           id="path1600-0-6-2-8-7-5-4-0-8-3-1-8-6" /><path
           style="display:inline;fill:none;stroke:#000000;stroke-width:0.123437px;stroke-linecap:butt;stroke-linejoin:miter;stroke-opacity:1"
           d="m 37.046653,103.64721 c 0.444748,0.19257 24.372128,21.06597 24.372128,21.06597"
           id="path1600-0-6-2-8-7-5-4-0-8-3-1-8-6-9" /><path
           style="display:inline;fill:none;stroke:#000000;stroke-width:0.115752px;stroke-linecap:butt;stroke-linejoin:miter;stroke-opacity:1"
           d="m 34.91205,105.49378 c 0.426515,0.17658 23.372954,19.31646 23.372954,19.31646"
           id="path1600-0-6-2-8-7-5-4-0-8-3-1-8-6-9-6" /><path
           style="display:inline;fill:none;stroke:#000000;stroke-width:0.104047px;stroke-linecap:butt;stroke-linejoin:miter;stroke-opacity:1"
           d="m 32.9651,107.62073 c 0.390001,0.15603 21.372003,17.06851 21.372003,17.06851"
           id="path1600-0-6-2-8-7-5-4-0-8-3-1-8-6-9-6-6" /><path
           style="display:inline;fill:none;stroke:#000000;stroke-width:0.0942576px;stroke-linecap:butt;stroke-linejoin:miter;stroke-opacity:1"
           d="m 31.081352,109.49775 c 0.358044,0.13948 19.620775,15.25802 19.620775,15.25802"
           id="path1600-0-6-2-8-7-5-4-0-8-3-1-8-6-9-6-6-9" /><path
           style="display:inline;fill:none;stroke:#000000;stroke-width:0.0837843px;stroke-linecap:butt;stroke-linejoin:miter;stroke-opacity:1"
           d="m 29.322942,111.4058 c 0.32323,0.12208 17.712984,13.35411 17.712984,13.35411"
           id="path1600-0-6-2-8-7-5-4-0-8-3-1-8-6-9-6-6-9-1" /><path
           style="display:inline;fill:none;stroke:#000000;stroke-width:0.0750814px;stroke-linecap:butt;stroke-linejoin:miter;stroke-opacity:1"
           d="m 27.611965,113.04808 c 0.294693,0.10752 16.149216,11.76235 16.149216,11.76235"
           id="path1600-0-6-2-8-7-5-4-0-8-3-1-8-6-9-6-6-9-1-7" /><path
           style="display:inline;fill:none;stroke:#000000;stroke-width:0.0663812px;stroke-linecap:butt;stroke-linejoin:miter;stroke-opacity:1"
           d="m 25.963856,114.58047 c 0.265583,0.0933 14.553936,10.20213 14.553936,10.20213"
           id="path1600-0-6-2-8-7-5-4-0-8-3-1-8-6-9-6-6-9-1-7-6" /><path
           style="display:inline;fill:none;stroke:#000000;stroke-width:0.0582054px;stroke-linecap:butt;stroke-linejoin:miter;stroke-opacity:1"
           d="m 24.331383,116.12885 c 0.239329,0.0796 13.115232,8.70426 13.115232,8.70426"
           id="path1600-0-6-2-8-7-5-4-0-8-3-1-8-6-9-6-6-9-1-7-6-1" /><path
           style="display:inline;fill:none;stroke:#000000;stroke-width:0.0486391px;stroke-linecap:butt;stroke-linejoin:miter;stroke-opacity:1"
           d="m 22.761657,117.66087 c 0.204497,0.065 11.206442,7.11351 11.206442,7.11351"
           id="path1600-0-6-2-8-7-5-4-0-8-3-1-8-6-9-6-6-9-1-7-6-1-8" /><path
           style="display:inline;fill:none;stroke:#000000;stroke-width:0.0400257px;stroke-linecap:butt;stroke-linejoin:miter;stroke-opacity:1"
           d="m 21.333252,119.11495 c 0.172516,0.0522 9.453912,5.71016 9.453912,5.71016"
           id="path1600-0-6-2-8-7-5-4-0-8-3-1-8-6-9-6-6-9-1-7-6-1-8-1" /><path
           style="display:inline;fill:none;stroke:#000000;stroke-width:0.0317929px;stroke-linecap:butt;stroke-linejoin:miter;stroke-opacity:1"
           d="m 20.077423,120.38099 c 0.142248,0.0399 7.795222,4.36932 7.795222,4.36932"
           id="path1600-0-6-2-8-7-5-4-0-8-3-1-8-6-9-6-6-9-1-7-6-1-8-1-3" /><path
           style="display:inline;fill:none;stroke:#000000;stroke-width:0.0225696px;stroke-linecap:butt;stroke-linejoin:miter;stroke-opacity:1"
           d="m 18.711905,121.70934 c 0.103396,0.0277 5.666126,3.02931 5.666126,3.02931"
           id="path1600-0-6-2-8-7-5-4-0-8-3-1-8-6-9-6-6-9-1-7-6-1-8-1-3-4" /></g></g><path
       style="fill:none;stroke:#000000;stroke-width:0.499999"
       d="m 64.048385,20.758064 46.217745,0.266129"
       id="path475" /><path
       style="fill:none;stroke:#000000;stroke-width:0.485985"
       d="m 66.664991,23.452174 43.599889,0.266517"
       id="path475-3" /><path
       style="fill:none;stroke:#000000;stroke-width:0.470978"
       d="m 69.416197,26.199664 40.982113,0.266299"
       id="path475-0" /><path
       style="fill:none;stroke:#000000;stroke-width:0.456692"
       d="m 71.924611,28.89548 38.472549,0.266724"
       id="path475-3-2" /><path
       style="fill:none;stroke:#000000;stroke-width:0.441126"
       d="m 74.318571,31.290525 35.956569,0.266263"
       id="path475-1" /><path
       style="fill:none;stroke:#000000;stroke-width:0.424307"
       d="M 77.07518,33.985907 110.274,34.252718"
       id="path475-3-9" /><path
       style="fill:none;stroke:#000000;stroke-width:0.406569"
       d="m 79.892156,36.734686 30.485464,0.266771"
       id="path475-0-8" /><path
       style="fill:none;stroke:#000000;stroke-width:0.389029"
       d="m 82.531353,39.431747 27.845187,0.267412"
       id="path475-3-2-5" /><path
       style="fill:none;stroke:#000000;stroke-width:0.372638"
       d="m 85.297519,42.286192 25.319871,0.269823"
       id="path475-3-6" /><path
       style="fill:none;stroke:#000000;stroke-width:0.349286"
       d="m 88.048606,45.030795 22.524904,0.266479"
       id="path475-0-6" /><path
       style="fill:none;stroke:#000000;stroke-width:0.328553"
       d="m 90.713666,47.728162 19.858754,0.26744"
       id="path475-3-2-8" /><path
       style="fill:none;stroke:#000000;stroke-width:0.307132"
       d="M 93.158977,50.124534 110.50493,50.39209"
       id="path475-1-5" /><path
       style="fill:none;stroke:#000000;stroke-width:0.284299"
       d="m 95.709522,52.821389 14.794338,0.268795"
       id="path475-3-9-6" /><path
       style="fill:none;stroke:#000000;stroke-width:0.253106"
       d="m 98.701247,55.571367 11.670673,0.270066"
       id="path475-0-8-9" /><path
       style="fill:none;stroke:#000000;stroke-width:0.224551"
       d="m 101.28138,58.269603 9.12085,0.271996"
       id="path475-3-2-5-0" /><path
       style="fill:none;stroke:#000000;stroke-width:0.19262"
       d="m 103.71869,60.706549 6.63788,0.275001"
       id="path475-0-8-9-2" /><path
       style="fill:none;stroke:#000000;stroke-width:0.148366"
       d="m 106.34587,63.400255 3.86823,0.279977"
       id="path475-3-2-5-0-8" /><path
       style="fill:none;stroke:#000000;stroke-width:0.147421"
       d="m 65.394214,22.30371 0.35991,-3.870642"
       id="path475-4" /><path
       style="fill:none;stroke:#000000;stroke-width:0.192119"
       d="m 68.091322,24.947528 0.358854,-6.504012"
       id="path475-3-4" /><path
       style="fill:none;stroke:#000000;stroke-width:0.225474"
       d="m 70.84685,27.43838 0.347588,-9.126889"
       id="path475-0-4" /><path
       style="fill:none;stroke:#000000;stroke-width:0.258494"
       d="m 73.547824,30.345893 0.34206,-12.028488"
       id="path475-3-2-4" /><path
       style="fill:none;stroke:#000000;stroke-width:0.281133"
       d="M 75.947706,32.746626 76.283582,18.443412"
       id="path475-1-7" /><path
       style="fill:none;stroke:#000000;stroke-width:0.30732"
       d="M 78.648687,35.583905 78.978711,18.448778"
       id="path475-3-9-5" /><path
       style="fill:none;stroke:#000000;stroke-width:0.331977"
       d="m 81.403249,38.449969 0.3235,-20.100834"
       id="path475-0-8-5" /><path
       style="fill:none;stroke:#000000;stroke-width:0.351245"
       d="M 84.105726,40.914145 84.423632,18.353904"
       id="path475-3-2-5-2" /><path
       style="fill:none;stroke:#000000;stroke-width:0.375451"
       d="M 86.966031,43.832054 87.279857,18.116369"
       id="path475-3-6-9" /><path
       style="fill:none;stroke:#000000;stroke-width:0.389967"
       d="M 89.716533,46.457941 90.019935,18.16293"
       id="path475-0-6-0" /><path
       style="fill:none;stroke:#000000;stroke-width:0.407407"
       d="m 92.419853,49.211788 0.297092,-31.04597"
       id="path475-3-2-8-9" /><path
       style="fill:none;stroke:#000000;stroke-width:0.420664"
       d="M 94.821916,51.653313 95.111882,18.233866"
       id="path475-1-5-3" /><path
       style="fill:none;stroke:#000000;stroke-width:0.435818"
       d="m 97.525139,54.435523 0.28291,-36.201355"
       id="path475-3-9-6-0" /><path
       style="fill:none;stroke:#000000;stroke-width:0.447118"
       d="m 100.2833,57.135527 0.27278,-38.774126"
       id="path475-0-8-9-0" /><path
       style="fill:none;stroke:#000000;stroke-width:0.458706"
       d="M 102.98983,60.032594 103.25251,18.3221"
       id="path475-3-2-5-0-1" /><path
       style="fill:none;stroke:#000000;stroke-width:0.462385"
       d="M 105.43669,62.188267 105.6867,18.348681"
       id="path475-0-8-9-2-5" /><path
       style="fill:none;stroke:#000000;stroke-width:0.457375"
       d="m 108.14719,65.12535 0.22572,-46.689054"
       id="path475-3-2-5-0-8-9" /><path
       style="fill:none;stroke:#000000;stroke-width:0.50525"
       d="M 88.59321,94.240527 88.891066,45.859048"
       id="path475-0-6-0-6" /><path
       style="fill:none;stroke:#000000;stroke-width:0.506281"
       d="M 91.295919,96.992853 91.588687,48.341182"
       id="path475-3-2-8-9-8" /><path
       style="fill:none;stroke:#000000;stroke-width:0.503587"
       d="m 93.697488,99.433148 0.28663,-48.450873"
       id="path475-1-5-3-7" /><path
       style="fill:none;stroke:#000000;stroke-width:0.502743"
       d="m 96.400273,102.21428 0.28045,-48.596085"
       id="path475-3-9-6-0-4" /><path
       style="fill:none;stroke:#000000;stroke-width:0.499417"
       d="m 99.158084,104.91344 0.27102,-48.689445"
       id="path475-0-8-9-0-5" /><path
       style="fill:none;stroke:#000000;stroke-width:0.493874"
       d="m 101.86426,107.49603 0.26162,-48.550494"
       id="path475-3-2-5-0-1-6" /><path
       style="fill:none;stroke:#000000;stroke-width:0.485473"
       d="m 104.31091,109.9648 0.24937,-48.451689"
       id="path475-0-8-9-2-5-2" /><path
       style="fill:none;stroke:#000000;stroke-width:0.466135"
       d="m 107.0212,112.90134 0.2255,-48.540073"
       id="path475-3-2-5-0-8-9-5" /><path
       style="fill:none;stroke:#000000;stroke-width:0.499999"
       d="m 61.535397,67.055391 c 0.439089,0.125454 24.27543,0.439089 24.27543,0.439089"
       id="path1229" /><path
       style="fill:none;stroke:#000000;stroke-width:0.489512"
       d="m 62.853224,68.777904 c 0.418639,0.12612 23.144849,0.441421 23.144849,0.441421"
       id="path1229-7" /><path
       style="fill:none;stroke:#000000;stroke-width:0.470796"
       d="m 64.514235,70.360608 c 0.388462,0.125725 21.476405,0.440034 21.476405,0.440034"
       id="path1229-4" /><path
       style="fill:none;stroke:#000000;stroke-width:0.455528"
       d="m 66.213414,72.091554 c 0.36062,0.126788 19.937182,0.443759 19.937182,0.443759"
       id="path1229-7-9" /><path
       style="fill:none;stroke:#000000;stroke-width:0.426392"
       d="m 68.166523,73.783727 c 0.321424,0.124635 17.770203,0.43622 17.770203,0.43622"
       id="path1229-3" /><path
       style="fill:none;stroke:#000000;stroke-width:0.410776"
       d="m 69.729903,75.515379 c 0.295355,0.125881 16.329025,0.440586 16.329025,0.440586"
       id="path1229-7-4" /><path
       style="fill:none;stroke:#000000;stroke-width:0.391188"
       d="m 71.239015,77.106761 c 0.267949,0.125841 14.813792,0.440441 14.813792,0.440441"
       id="path1229-4-4" /><path
       style="fill:none;stroke:#000000;stroke-width:0.37213"
       d="m 72.929593,78.84678 c 0.239256,0.127534 13.227447,0.44637 13.227447,0.44637"
       id="path1229-7-9-3" /><path
       style="fill:none;stroke:#000000;stroke-width:0.35111"
       d="m 74.361224,80.202322 c 0.21305,0.127498 11.778642,0.446243 11.778642,0.446243"
       id="path1229-7-9-8" /><path
       style="fill:none;stroke:#000000;stroke-width:0.317507"
       d="m 76.31027,81.901689 c 0.175451,0.126604 9.699953,0.443113 9.699953,0.443113"
       id="path1229-3-1" /><path
       style="fill:none;stroke:#000000;stroke-width:0.29465"
       d="m 77.895449,83.640565 c 0.14803,0.12923 8.183947,0.452306 8.183947,0.452306"
       id="path1229-7-4-8" /><path
       style="fill:none;stroke:#000000;stroke-width:0.26367"
       d="m 79.623633,85.236973 c 0.116635,0.131339 6.448248,0.459687 6.448248,0.459687"
       id="path1229-4-4-3" /><path
       style="fill:none;stroke:#000000;stroke-width:0.234228"
       d="m 81.192073,86.982578 c 0.08932,0.135333 4.938387,0.473666 4.938387,0.473666"
       id="path1229-7-9-3-3" /><path
       style="fill:none;stroke:#000000;stroke-width:0.232762"
       d="m 81.096759,47.245972 c 0.08341,0.143122 4.611345,0.500929 4.611345,0.500929"
       id="path1229-7-5" /><path
       style="fill:none;stroke:#000000;stroke-width:0.264639"
       d="m 79.613237,48.833206 c 0.110104,0.140156 6.087164,0.490541 6.087164,0.490541"
       id="path1229-4-6" /><path
       style="fill:none;stroke:#000000;stroke-width:0.301418"
       d="m 77.857829,50.569332 c 0.144772,0.138277 8.003854,0.483971 8.003854,0.483971"
       id="path1229-7-9-84" /><path
       style="fill:none;stroke:#000000;stroke-width:0.318875"
       d="m 76.355877,52.266552 c 0.168133,0.133257 9.295386,0.466396 9.295386,0.466396"
       id="path1229-3-0" /><path
       style="fill:none;stroke:#000000;stroke-width:0.351492"
       d="m 74.288368,54.004417 c 0.207849,0.130972 11.491168,0.458404 11.491168,0.458404"
       id="path1229-7-4-6" /><path
       style="fill:none;stroke:#000000;stroke-width:0.369287"
       d="m 72.786998,55.601175 c 0.235028,0.127853 12.993739,0.447483 12.993739,0.447483"
       id="path1229-4-4-5" /><path
       style="fill:none;stroke:#000000;stroke-width:0.389517"
       d="m 71.203252,57.347881 c 0.265759,0.125795 14.692669,0.440283 14.692669,0.440283"
       id="path1229-7-9-3-7" /><path
       style="fill:none;stroke:#000000;stroke-width:0.402441"
       d="m 69.716841,58.710202 c 0.292573,0.121974 16.175184,0.426908 16.175184,0.426908"
       id="path1229-7-9-8-0" /><path
       style="fill:none;stroke:#000000;stroke-width:0.410106"
       d="m 68.046058,60.419653 c 0.320875,0.115492 17.739839,0.404221 17.739839,0.404221"
       id="path1229-3-1-6" /><path
       style="fill:none;stroke:#000000;stroke-width:0.423438"
       d="m 66.41649,62.169298 c 0.352138,0.112193 19.468228,0.392676 19.468228,0.392676"
       id="path1229-7-4-8-4" /><path
       style="fill:none;stroke:#000000;stroke-width:0.428685"
       d="m 64.987007,63.778777 c 0.37867,0.106935 20.935006,0.374271 20.935006,0.374271"
       id="path1229-4-4-3-1" /><path
       style="fill:none;stroke:#000000;stroke-width:0.440892"
       d="m 62.928226,65.540338 c 0.417994,0.102463 23.110415,0.358621 23.110415,0.358621"
       id="path1229-7-9-3-3-9" /></g></svg>
